<?xml version="1.0" encoding="UTF-8" standalone="no"?>
<!DOCTYPE svg PUBLIC "-//W3C//DTD SVG 1.1//EN" "http://www.w3.org/Graphics/SVG/1.1/DTD/svg11.dtd">
<svg width="100%" height="100%" viewBox="0 0 2363 2363" version="1.1" xmlns="http://www.w3.org/2000/svg" xmlns:xlink="http://www.w3.org/1999/xlink" xml:space="preserve" xmlns:serif="http://www.serif.com/" style="fill-rule:evenodd;clip-rule:evenodd;stroke-linecap:round;stroke-linejoin:round;stroke-miterlimit:1.5;">
    <g id="Map">
        <rect id="arm1" x="1113.11" y="309.036" width="130.199" height="1019.76" style="fill:rgb(41,255,64);stroke:black;stroke-width:0.75px;"/>
        <path id="core" d="M1113.1,1328.9L1243.31,1328.79L1308.5,1441.5L1243.49,1554.31L1113.28,1554.41L1048.09,1441.71L1113.1,1328.9Z" style="fill:rgb(41,255,64);stroke:black;stroke-width:1.18px;"/>
        <path id="arm3" d="M167.989,1950.76L1048.13,1441.68L1113.34,1554.42L233.196,2063.5L167.989,1950.76Z" style="fill:rgb(41,255,64);stroke:black;stroke-width:1.18px;"/>
        <path id="edge3" d="M1088.21,247.433L1088.37,1309.11L1021.19,1426.48L104.571,1956.53L1088.21,247.433Z" style="fill:rgb(41,255,64);stroke:black;stroke-width:1px;"/>
        <path id="arm2" d="M2126.74,2064.01L1243.6,1554.13L1308.7,1441.37L2191.84,1951.25L2126.74,2064.01Z" style="fill:rgb(41,255,64);stroke:black;stroke-width:1.27px;"/>
        <path id="edge2" d="M2257.63,1960.49L1338.11,1429.79L1270.06,1312.93L1269.33,254.083L2257.63,1960.49Z" style="fill:rgb(41,255,64);stroke:black;stroke-width:1px;"/>
        <path id="edge1" d="M193.264,2114.77L1112.91,1584.29L1248.14,1583.86L2165.21,2113.14L193.264,2114.77Z" style="fill:rgb(41,255,64);stroke:black;stroke-width:1px;"/>
        <g id="Detail">
            <path id="I" d="M1599.63,840.505L1914.39,1384.98L1804.92,1448.27L1490.15,903.794L1599.63,840.505Z" style="fill:rgb(0,0,5);"/>
            <path d="M1335.5,627.889L1976.24,1707.27L1946.91,1724.68L1306.17,645.304L1335.5,627.889Z" style="fill:rgb(0,0,5);"/>
            <path d="M1494.69,651.271L1380.53,717.728L1363.37,688.244L1477.52,621.787L1494.69,651.271Z" style="fill:rgb(0,0,5);"/>
            <path d="M1479.03,869.277L1398.38,916.226L1381.22,886.742L1461.87,839.792L1479.03,869.277Z" style="fill:rgb(0,0,5);"/>
            <path d="M1503.59,782.81L1422.94,829.76L1405.77,800.276L1486.42,753.326L1503.59,782.81Z" style="fill:rgb(0,0,5);"/>
            <path d="M1946.59,1524.71L1865.94,1571.66L1848.78,1542.18L1929.43,1495.23L1946.59,1524.71Z" style="fill:rgb(0,0,5);"/>
            <path d="M2046.78,1601.94L1942.67,1662.55L1925.51,1633.07L2029.62,1572.46L2046.78,1601.94Z" style="fill:rgb(0,0,5);"/>
            <path d="M1847.74,1490.51L1763.38,1539.61L1746.22,1510.13L1830.57,1461.02L1847.74,1490.51Z" style="fill:rgb(0,0,5);"/>
            <path id="A" d="M1125.83,1347.13L1233.16,1348.32L1286.99,1442.56L1233.49,1535.61L1126.17,1534.42L1072.34,1440.18L1125.83,1347.13Z" style="stroke:black;stroke-width:1.1px;"/>
            <path d="M1441.12,1280.39L1657.36,1154.49L1674.53,1183.97L1458.29,1309.88L1441.12,1280.39Z" style="fill:rgb(0,0,5);"/>
            <path d="M1313.69,1080.9L1415.24,1081.3L1415.1,1115.42L1313.56,1115.02L1313.69,1080.9Z" style="fill:rgb(0,0,5);"/>
            <path d="M1536.95,1493.21L1583.47,1402.95L1613.8,1418.58L1567.28,1508.84L1536.95,1493.21Z" style="fill:rgb(0,0,5);"/>
            <path d="M975.395,1406.38L1046.44,1285.68L1075.84,1302.98L1004.8,1423.68L975.395,1406.38Z" style="fill:rgb(0,0,5);"/>
            <path d="M1584.32,1436.82L1385.42,1098.76L1414.83,1081.46L1613.73,1419.52L1584.32,1436.82Z" style="fill:rgb(0,0,5);"/>
            <path d="M1763.73,1537.25L1380.78,886.364L1410.18,869.064L1793.14,1519.95L1763.73,1537.25Z" style="fill:rgb(0,0,5);"/>
            <path id="F" d="M1295.77,1247.48L1399.88,1186.86L1508.84,1374L1404.74,1434.62L1295.77,1247.48Z" style="fill:rgb(0,0,5);"/>
            <path id="F1" serif:id="F" d="M1431.81,733.571L1498.75,694.592L1568.82,814.927L1501.88,853.907L1431.81,733.571Z" style="fill:rgb(0,0,5);"/>
            <path id="F2" serif:id="F" d="M1865.21,1474.41L1932.15,1435.43L2002.22,1555.76L1935.28,1594.74L1865.21,1474.41Z" style="fill:rgb(0,0,5);"/>
            <path id="E" d="M1476.06,1474.92L1520.26,1405.46L1653.53,1490.27L1609.33,1559.73L1476.06,1474.92Z" style="fill:rgb(0,0,5);"/>
            <path d="M1708.57,1596.51L1755.09,1506.25L1785.42,1521.88L1738.9,1612.14L1708.57,1596.51Z" style="fill:rgb(0,0,5);"/>
            <path id="E1" serif:id="E" d="M1647.67,1578.22L1691.88,1508.76L1825.15,1593.57L1780.95,1663.03L1647.67,1578.22Z" style="fill:rgb(0,0,5);"/>
            <path id="D" d="M1972.98,1781.47L2011.89,1708.91L2151.11,1783.57L2112.2,1856.13L1972.98,1781.47Z" style="fill:rgb(0,0,5);"/>
            <path id="G" d="M1291.58,1017.45L1373.9,1015.92L1376.85,1173.86L1294.52,1175.39L1291.58,1017.45Z" style="fill:rgb(0,0,5);"/>
            <path d="M1312.05,877.581L1413.6,877.982L1413.46,912.098L1311.92,911.698L1312.05,877.581Z" style="fill:rgb(0,0,5);"/>
            <path id="G1" serif:id="G" d="M1289.94,814.13L1372.26,812.597L1375.21,970.54L1292.88,972.073L1289.94,814.13Z" style="fill:rgb(0,0,5);"/>
            <path id="H" d="M1284.58,445.297L1366.91,445.274L1366.96,603.244L1284.62,603.268L1284.58,445.297Z" style="fill:rgb(0,0,5);"/>
            <path id="K" d="M914.724,938.16L997.058,938.773L995.882,1096.74L913.548,1096.13L914.724,938.16Z" style="fill:rgb(0,0,5);"/>
            <path id="L" d="M932.917,1201.01L1004.46,1241.75L958.222,1322.95L886.675,1282.2L932.917,1201.01Z" style="fill:rgb(0,0,5);"/>
            <path id="M" d="M755.927,1373.56L796.13,1445.41L658.272,1522.55L618.068,1450.69L755.927,1373.56Z" style="fill:rgb(0,0,5);"/>
            <path id="J1" d="M876.284,652.565L987.518,716.893L796.973,1046.38L685.738,982.052L876.284,652.565Z" style="fill:rgb(0,0,5);"/>
            <path id="J2" d="M538.143,1248.14L649.422,1312.39L459.104,1642.01L347.825,1577.76L538.143,1248.14Z" style="fill:rgb(0,0,5);"/>
            <path id="C1" d="M844.926,1977.14L845.284,2105.64L543.929,2106.48L543.572,1977.98L844.926,1977.14Z" style="fill:rgb(0,0,5);"/>
            <path id="C2" d="M1152.97,1976.25L1153.33,2104.75L855.572,2105.58L855.214,1977.08L1152.97,1976.25Z" style="fill:rgb(0,0,5);"/>
            <path id="C3" d="M1506.04,1973.54L1506.4,2102.04L1205.04,2102.88L1204.69,1974.38L1506.04,1973.54Z" style="fill:rgb(0,0,5);"/>
            <path id="C4" d="M1814.09,1972.65L1814.44,2101.15L1516.69,2101.97L1516.33,1973.48L1814.09,1972.65Z" style="fill:rgb(0,0,5);"/>
            <path id="B2" d="M1332.69,1649.74L1333.03,1769.69L1203.58,1770.05L1203.24,1650.1L1332.69,1649.74Z" style="fill:rgb(0,0,5);"/>
            <path id="B1" d="M1155.8,1650.67L1156.13,1770.93L1026.68,1771.29L1026.35,1651.03L1155.8,1650.67Z" style="fill:rgb(0,0,5);"/>
            <path id="B4" d="M1332.69,1780.34L1333.03,1900.29L1203.58,1900.65L1203.24,1780.7L1332.69,1780.34Z" style="fill:rgb(0,0,5);"/>
            <path id="B3" d="M1155.8,1781.27L1156.13,1901.54L1026.68,1901.9L1026.35,1781.63L1155.8,1781.27Z" style="fill:rgb(0,0,5);"/>
            <path id="N" d="M671.129,1015.32L889.431,1139.41L775.988,1338.98L557.687,1214.89L671.129,1015.32Z" style="fill:rgb(0,0,5);"/>
            <path d="M1876.76,1835.05L1956.13,1699.7L1985.56,1716.96L1906.19,1852.31L1876.76,1835.05Z" style="fill:rgb(0,0,5);"/>
            <path d="M1605.34,1941.04L1726.04,1735.22L1755.47,1752.48L1634.77,1958.3L1605.34,1941.04Z" style="fill:rgb(0,0,5);"/>
            <path d="M482.365,1373.09L762.538,895.325L791.968,912.583L511.794,1390.35L482.365,1373.09Z" style="fill:rgb(0,0,5);"/>
            <path d="M660.617,1348.96L852.386,1021.94L881.815,1039.2L690.046,1366.22L660.617,1348.96Z" style="fill:rgb(0,0,5);"/>
            <path d="M608.407,1085.95L1049.6,1339.23L1032.61,1368.82L591.421,1115.54L608.407,1085.95Z" style="fill:rgb(0,0,5);"/>
            <path d="M1974.55,1705.7L2118.71,1788.46L2101.72,1818.05L1957.56,1735.29L1974.55,1705.7Z" style="fill:rgb(0,0,5);"/>
            <path d="M1196.92,1484.13L1196.36,2113.04L1162.24,2113.01L1162.8,1484.1L1196.92,1484.13Z" style="fill:rgb(0,0,5);"/>
            <path d="M1046.3,1926.38L1046.17,2061.31L1012.06,2061.28L1012.18,1926.35L1046.3,1926.38Z" style="fill:rgb(0,0,5);"/>
            <path d="M751.154,1927.53L751.034,2062.46L716.918,2062.43L717.038,1927.5L751.154,1927.53Z" style="fill:rgb(0,0,5);"/>
            <path d="M1384.67,1920.61L1384.55,2055.54L1350.43,2055.51L1350.55,1920.58L1384.67,1920.61Z" style="fill:rgb(0,0,5);"/>
            <path d="M1247.6,1851.15L1112.68,1851.17L1112.67,1817.05L1247.6,1817.03L1247.6,1851.15Z" style="fill:rgb(0,0,5);"/>
            <path d="M1246.13,1728.17L1111.2,1728.19L1111.2,1694.07L1246.12,1694.06L1246.13,1728.17Z" style="fill:rgb(0,0,5);"/>
            <path d="M1645.8,1920.04L1645.68,2054.97L1611.56,2054.94L1611.68,1920.01L1645.8,1920.04Z" style="fill:rgb(0,0,5);"/>
            <path d="M1341.88,528.542L1341.76,662.894L1307.64,662.863L1307.76,528.511L1341.88,528.542Z" style="fill:rgb(0,0,5);"/>
            <path d="M851.969,1022.65L992.921,1025.41L992.251,1059.52L851.3,1056.76L851.969,1022.65Z" style="fill:rgb(0,0,5);"/>
            <path d="M690.41,1331.14L759.18,1454.21L729.398,1470.85L660.628,1347.79L690.41,1331.14Z" style="fill:rgb(0,0,5);"/>
            <path d="M1181.56,631.366L1339.73,628.362L1340.38,662.472L1182.2,665.477L1181.56,631.366Z" style="fill:rgb(0,0,5);"/>
            <path d="M285.085,1798.84L358.684,1924.19L329.264,1941.47L255.664,1816.11L285.085,1798.84Z" style="fill:rgb(0,0,5);"/>
            <path d="M652.001,1758.7L754.098,1932.59L724.678,1949.86L622.581,1775.97L652.001,1758.7Z" style="fill:rgb(0,0,5);"/>
            <path d="M1037.04,416.096L1194.35,413.107L1195,447.218L1037.68,450.206L1037.04,416.096Z" style="fill:rgb(0,0,5);"/>
            <path d="M719.489,1924.29L1645.44,1918.88L1645.64,1952.99L719.689,1958.41L719.489,1924.29Z" style="fill:rgb(0,0,5);"/>
            <path d="M1195.01,311.978L1198.86,1361.19L1164.75,1361.31L1160.9,312.103L1195.01,311.978Z" style="fill:rgb(0,0,5);"/>
            <path d="M1072.01,445.065L1075.16,1305.44L1041.05,1305.57L1037.89,445.19L1072.01,445.065Z" style="fill:rgb(0,0,5);"/>
            <path d="M1113.67,1499.93L211.824,2020.52L194.768,1990.97L1096.62,1470.38L1113.67,1499.93Z" style="fill:rgb(0,0,5);"/>
            <path d="M1007.45,1421.25L272.7,1845.38L255.644,1815.84L990.394,1391.7L1007.45,1421.25Z" style="fill:rgb(0,0,5);"/>
            <path d="M2150.67,2019.52L1236.19,1490.56L1253.27,1461.03L2167.75,1989.99L2150.67,2019.52Z" style="fill:rgb(0,0,5);"/>
        </g>
        <g id="Text">
            <g transform="matrix(50,0,0,50,1302.18,2163.8)">
            </g>
            <text x="1051.18px" y="2163.8px" style="font-family:'CenturyGothic', 'Century Gothic';font-size:50px;fill:rgb(17,247,0);">RESEARCH</text>
            <g transform="matrix(-0.532395,-0.846496,0.846496,-0.532395,-1869.85,4706.33)">
                <g transform="matrix(50,0,0,50,1201.88,5047.27)">
                </g>
                <text x="982.814px" y="5047.27px" style="font-family:'CenturyGothic', 'Century Gothic';font-size:50px;fill:rgb(52,255,54);">HANGAR</text>
            </g>
            <g transform="matrix(-0.515249,0.85704,-0.85704,-0.515249,5584.52,30.9399)">
                <g transform="matrix(50,0,0,50,3577.95,3772.45)">
                </g>
                <text x="3401.36px" y="3772.45px" style="font-family:'CenturyGothic', 'Century Gothic';font-size:50px;fill:rgb(5,230,0);">PRISON</text>
            </g>
            <g transform="matrix(50,0,0,50,1198.26,1530.06)">
            </g>
            <text x="1161.28px" y="1530.06px" style="font-family:'CenturyGothic', 'Century Gothic';font-size:50px;fill:rgb(17,247,0);">A</text>
            <g transform="matrix(-0.484413,-0.87484,0.87484,-0.484413,-1942.55,5104.46)">
                <g transform="matrix(50,0,0,50,1718.26,4594.93)">
                </g>
                <text x="1681.27px" y="4594.93px" style="font-family:'CenturyGothic', 'Century Gothic';font-size:50px;fill:rgb(17,247,0);">A</text>
            </g>
            <g transform="matrix(-0.500595,0.865682,-0.865682,-0.500595,5409.23,-884.083)">
                <g transform="matrix(50,0,0,50,4145,2588.51)">
                </g>
                <text x="4108.01px" y="2588.51px" style="font-family:'CenturyGothic', 'Century Gothic';font-size:50px;fill:rgb(17,247,0);">A</text>
            </g>
            <text x="1049.57px" y="1715.04px" style="font-family:'CenturyGothic', 'Century Gothic';font-size:50px;fill:rgb(17,247,0);">B1</text>
            <text x="1222.5px" y="1711.58px" style="font-family:'CenturyGothic', 'Century Gothic';font-size:50px;fill:rgb(17,247,0);">B2</text>
            <text x="1046.11px" y="1842.43px" style="font-family:'CenturyGothic', 'Century Gothic';font-size:50px;fill:rgb(17,247,0);">B3</text>
            <text x="1225.96px" y="1847.04px" style="font-family:'CenturyGothic', 'Century Gothic';font-size:50px;fill:rgb(17,247,0);">B4</text>
            <g transform="matrix(50,0,0,50,685.714,2043.07)">
            </g>
            <text x="617.354px" y="2043.07px" style="font-family:'CenturyGothic', 'Century Gothic';font-size:50px;fill:rgb(17,247,0);">C1</text>
            <g transform="matrix(50,0,0,50,978.441,2043.07)">
            </g>
            <text x="910.081px" y="2043.07px" style="font-family:'CenturyGothic', 'Century Gothic';font-size:50px;fill:rgb(17,247,0);">C2</text>
            <g transform="matrix(50,0,0,50,1316.2,2043.07)">
            </g>
            <text x="1247.84px" y="2043.07px" style="font-family:'CenturyGothic', 'Century Gothic';font-size:50px;fill:rgb(17,247,0);">C3</text>
            <text x="1565.79px" y="2043.07px" style="font-family:'CenturyGothic', 'Century Gothic';font-size:50px;fill:rgb(17,247,0);">C4</text>
            <g transform="matrix(-0.466618,-0.884459,0.884459,-0.466618,-891.208,6697.93)">
                <g transform="matrix(50,0,0,50,2988.08,4927.31)">
                </g>
                <text x="2950.87px" y="4927.31px" style="font-family:'CenturyGothic', 'Century Gothic';font-size:50px;fill:rgb(17,247,0);">D</text>
            </g>
            <g transform="matrix(-0.466618,-0.884459,0.884459,-0.466618,-1377.41,5811.47)">
                <g transform="matrix(50,0,0,50,2467.28,4630.68)">
                </g>
                <text x="2440.48px" y="4630.68px" style="font-family:'CenturyGothic', 'Century Gothic';font-size:50px;fill:rgb(17,247,0);">E</text>
            </g>
            <g transform="matrix(-0.466618,-0.884459,0.884459,-0.466618,-1472.85,5432.06)">
                <g transform="matrix(50,0,0,50,2302.59,4469.76)">
                </g>
                <text x="2278.35px" y="4469.76px" style="font-family:'CenturyGothic', 'Century Gothic';font-size:50px;fill:rgb(17,247,0);">F</text>
            </g>
            <g transform="matrix(-0.466618,-0.884459,0.884459,-0.466618,-1357.35,5031.21)">
                <g transform="matrix(50,0,0,50,2258.84,4234.51)">
                </g>
                <text x="2215.23px" y="4234.51px" style="font-family:'CenturyGothic', 'Century Gothic';font-size:50px;fill:rgb(17,247,0);">G</text>
            </g>
            <g transform="matrix(-0.466618,-0.884459,0.884459,-0.466618,-1189.66,4718.95)">
                <g transform="matrix(50,0,0,50,2248.38,4027.81)">
                </g>
                <text x="2204.92px" y="4027.81px" style="font-family:'CenturyGothic', 'Century Gothic';font-size:50px;fill:rgb(17,247,0);">O</text>
            </g>
            <g transform="matrix(-0.466618,-0.884459,0.884459,-0.466618,-1206.82,6133.97)">
                <g transform="matrix(50,0,0,50,2652.6,4740.5)">
                </g>
                <text x="2623.01px" y="4740.5px" style="font-family:'CenturyGothic', 'Century Gothic';font-size:50px;fill:rgb(17,247,0);">P</text>
            </g>
            <g transform="matrix(-0.466618,-0.884459,0.884459,-0.466618,-827.087,4725.45)">
                <g transform="matrix(50,0,0,50,2417.76,3921.73)">
                </g>
                <text x="2388.17px" y="3921.73px" style="font-family:'CenturyGothic', 'Century Gothic';font-size:50px;fill:rgb(17,247,0);">P</text>
            </g>
            <g transform="matrix(-0.466618,-0.884459,0.884459,-0.466618,-838.221,6191.86)">
                <g transform="matrix(50,0,0,50,2868.32,4658.3)">
                </g>
                <text x="2824.77px" y="4658.3px" style="font-family:'CenturyGothic', 'Century Gothic';font-size:50px;fill:rgb(17,247,0);">Q</text>
            </g>
            <g transform="matrix(-0.466618,-0.884459,0.884459,-0.466618,-855.956,4202.01)">
                <g transform="matrix(50,0,0,50,2250.06,3668.72)">
                </g>
                <text x="2215.9px" y="3668.72px" style="font-family:'CenturyGothic', 'Century Gothic';font-size:50px;fill:rgb(17,247,0);">H</text>
            </g>
            <g transform="matrix(-0.466618,-0.884459,0.884459,-0.466618,-849.938,5442.63)">
                <g transform="matrix(50,0,0,50,2604.3,4287.21)">
                </g>
                <text x="2592.99px" y="4287.21px" style="font-family:'CenturyGothic', 'Century Gothic';font-size:50px;fill:rgb(17,247,0);">I</text>
            </g>
            <g transform="matrix(-0.443772,0.89614,-0.89614,-0.443772,3158.52,-1238.41)">
                <g transform="matrix(50,0,0,50,2849.73,1156.54)">
                </g>
                <text x="2797.92px" y="1156.54px" style="font-family:'CenturyGothic', 'Century Gothic';font-size:50px;fill:rgb(17,247,0);">J1</text>
            </g>
            <g transform="matrix(-0.443772,0.89614,-0.89614,-0.443772,3470.62,-944.545)">
                <g transform="matrix(50,0,0,50,2892.31,1400.33)">
                </g>
                <text x="2862.77px" y="1400.33px" style="font-family:'CenturyGothic', 'Century Gothic';font-size:50px;fill:rgb(17,247,0);">K</text>
            </g>
            <g transform="matrix(-0.443772,0.89614,-0.89614,-0.443772,3678.09,-602.554)">
                <g transform="matrix(50,0,0,50,2883.47,1635.71)">
                </g>
                <text x="2860.37px" y="1635.71px" style="font-family:'CenturyGothic', 'Century Gothic';font-size:50px;fill:rgb(17,247,0);">L</text>
            </g>
            <g transform="matrix(-0.443772,0.89614,-0.89614,-0.443772,3484.91,-96.2129)">
                <g transform="matrix(50,0,0,50,2652.59,1828.93)">
                </g>
                <text x="2606.64px" y="1828.93px" style="font-family:'CenturyGothic', 'Century Gothic';font-size:50px;fill:rgb(17,247,0);">M</text>
            </g>
            <g transform="matrix(-0.443772,0.89614,-0.89614,-0.443772,3201.1,169.081)">
                <g transform="matrix(50,0,0,50,2434.21,1873.5)">
                </g>
                <text x="2382.4px" y="1873.5px" style="font-family:'CenturyGothic', 'Century Gothic';font-size:50px;fill:rgb(17,247,0);">J2</text>
            </g>
            <g transform="matrix(-0.443772,0.89614,-0.89614,-0.443772,3263.34,-508.445)">
                <g transform="matrix(50,0,0,50,2660.77,1554.05)">
                </g>
                <text x="2623.79px" y="1554.05px" style="font-family:'CenturyGothic', 'Century Gothic';font-size:50px;fill:rgb(17,247,0);">N</text>
            </g>
        </g>
    </g>
</svg>
